<mxfile host="Electron" agent="Mozilla/5.0 (Windows NT 10.0; Win64; x64) AppleWebKit/537.36 (KHTML, like Gecko) draw.io/24.7.8 Chrome/128.0.6613.36 Electron/32.0.1 Safari/537.36" version="24.7.8">
  <diagram name="Pagina-1" id="3BzpafZwGD325lKmXdqI">
    <mxGraphModel dx="2046" dy="1891" grid="1" gridSize="10" guides="1" tooltips="1" connect="1" arrows="1" fold="1" page="1" pageScale="1" pageWidth="827" pageHeight="1169" math="0" shadow="0">
      <root>
        <mxCell id="0" />
        <mxCell id="1" parent="0" />
        <mxCell id="KsKx78XivSGBJ-cQR83x-6" value="Sender&#39;s LAN" style="html=1;fontColor=#FF3333;fontStyle=1;align=left;verticalAlign=top;spacing=0;labelBorderColor=none;fillColor=none;dashed=1;strokeWidth=2;strokeColor=#FF3333;spacingLeft=4;spacingTop=-3;" parent="1" vertex="1">
          <mxGeometry x="10" y="280" width="440" height="270" as="geometry" />
        </mxCell>
        <mxCell id="KsKx78XivSGBJ-cQR83x-5" value="Reciever&#39;s LAN" style="html=1;fontColor=#FF3333;fontStyle=1;align=left;verticalAlign=top;spacing=0;labelBorderColor=none;fillColor=none;dashed=1;strokeWidth=2;strokeColor=#FF3333;spacingLeft=4;spacingTop=-3;" parent="1" vertex="1">
          <mxGeometry x="10" y="10" width="440" height="250" as="geometry" />
        </mxCell>
        <mxCell id="KsKx78XivSGBJ-cQR83x-7" value="Internet" style="html=1;fontColor=#FF3333;fontStyle=1;align=left;verticalAlign=top;spacing=0;labelBorderColor=none;fillColor=none;dashed=1;strokeWidth=2;strokeColor=#FF3333;spacingLeft=4;spacingTop=-3;" parent="1" vertex="1">
          <mxGeometry x="-30" y="-30" width="530" height="620" as="geometry" />
        </mxCell>
        <mxCell id="KsKx78XivSGBJ-cQR83x-9" value="Company datacenter" style="html=1;fontColor=#FF3333;fontStyle=1;align=left;verticalAlign=top;spacing=0;labelBorderColor=none;fillColor=none;dashed=1;strokeWidth=2;strokeColor=#FF3333;spacingLeft=4;spacingTop=-3;movable=1;resizable=1;rotatable=1;deletable=1;editable=1;locked=0;connectable=1;" parent="1" vertex="1">
          <mxGeometry x="620" y="-20" width="410" height="420" as="geometry" />
        </mxCell>
        <mxCell id="KsKx78XivSGBJ-cQR83x-1" value="Sender&#39;s smartphone" style="html=1;fontColor=#FF3333;fontStyle=1;align=left;verticalAlign=top;spacing=0;labelBorderColor=none;fillColor=none;dashed=1;strokeWidth=2;strokeColor=#FF3333;spacingLeft=4;spacingTop=-3;" parent="1" vertex="1">
          <mxGeometry x="80" y="310" width="260" height="210" as="geometry" />
        </mxCell>
        <mxCell id="KsKx78XivSGBJ-cQR83x-2" value="Mobile app" style="ellipse;whiteSpace=wrap;html=1;aspect=fixed;" parent="1" vertex="1">
          <mxGeometry x="240" y="400" width="80" height="80" as="geometry" />
        </mxCell>
        <mxCell id="KsKx78XivSGBJ-cQR83x-3" value="Reciever&#39;s smarthphone" style="html=1;fontColor=#FF3333;fontStyle=1;align=left;verticalAlign=top;spacing=0;labelBorderColor=none;fillColor=none;dashed=1;strokeWidth=2;strokeColor=#FF3333;spacingLeft=4;spacingTop=-3;" parent="1" vertex="1">
          <mxGeometry x="80" y="40" width="260" height="190" as="geometry" />
        </mxCell>
        <mxCell id="KsKx78XivSGBJ-cQR83x-4" value="Mobile app" style="ellipse;whiteSpace=wrap;html=1;aspect=fixed;" parent="1" vertex="1">
          <mxGeometry x="220" y="120" width="80" height="80" as="geometry" />
        </mxCell>
        <mxCell id="KsKx78XivSGBJ-cQR83x-8" value="Server" style="ellipse;whiteSpace=wrap;html=1;aspect=fixed;" parent="1" vertex="1">
          <mxGeometry x="660" y="170" width="90" height="90" as="geometry" />
        </mxCell>
        <mxCell id="KsKx78XivSGBJ-cQR83x-11" value="Admin machine" style="html=1;fontColor=#FF3333;fontStyle=1;align=left;verticalAlign=top;spacing=0;labelBorderColor=none;fillColor=none;dashed=1;strokeWidth=2;strokeColor=#FF3333;spacingLeft=4;spacingTop=-3;" parent="1" vertex="1">
          <mxGeometry x="730" width="290" height="140" as="geometry" />
        </mxCell>
        <mxCell id="KsKx78XivSGBJ-cQR83x-12" value="Admin" style="rounded=0;whiteSpace=wrap;html=1;" parent="1" vertex="1">
          <mxGeometry x="840" y="30" width="120" height="60" as="geometry" />
        </mxCell>
        <mxCell id="KsKx78XivSGBJ-cQR83x-13" value="data store" style="shape=partialRectangle;whiteSpace=wrap;html=1;left=0;right=0;fillColor=none;" parent="1" vertex="1">
          <mxGeometry x="815" y="260" width="120" height="60" as="geometry" />
        </mxCell>
        <mxCell id="KsKx78XivSGBJ-cQR83x-17" value="" style="endArrow=classic;startArrow=classic;html=1;fontColor=#FF3333;rounded=0;entryX=0.047;entryY=0.409;entryDx=0;entryDy=0;entryPerimeter=0;exitX=1;exitY=0.5;exitDx=0;exitDy=0;" parent="1" source="KsKx78XivSGBJ-cQR83x-4" target="KsKx78XivSGBJ-cQR83x-8" edge="1">
          <mxGeometry width="50" height="50" relative="1" as="geometry">
            <mxPoint x="250" y="140" as="sourcePoint" />
            <mxPoint x="460" y="150" as="targetPoint" />
          </mxGeometry>
        </mxCell>
        <mxCell id="KsKx78XivSGBJ-cQR83x-18" value="Recieve message" style="edgeLabel;html=1;align=center;verticalAlign=middle;resizable=0;points=[];" parent="KsKx78XivSGBJ-cQR83x-17" vertex="1" connectable="0">
          <mxGeometry x="0.1328" relative="1" as="geometry">
            <mxPoint as="offset" />
          </mxGeometry>
        </mxCell>
        <mxCell id="KsKx78XivSGBJ-cQR83x-19" value="" style="endArrow=classic;startArrow=classic;html=1;fontColor=#FF3333;rounded=0;entryX=0.047;entryY=0.764;entryDx=0;entryDy=0;entryPerimeter=0;exitX=0.958;exitY=0.288;exitDx=0;exitDy=0;exitPerimeter=0;" parent="1" source="KsKx78XivSGBJ-cQR83x-2" target="KsKx78XivSGBJ-cQR83x-8" edge="1">
          <mxGeometry width="50" height="50" relative="1" as="geometry">
            <mxPoint x="510" y="330" as="sourcePoint" />
            <mxPoint x="560" y="280" as="targetPoint" />
          </mxGeometry>
        </mxCell>
        <mxCell id="KsKx78XivSGBJ-cQR83x-20" value="Send message" style="edgeLabel;html=1;align=center;verticalAlign=middle;resizable=0;points=[];" parent="KsKx78XivSGBJ-cQR83x-19" vertex="1" connectable="0">
          <mxGeometry x="-0.1688" y="-1" relative="1" as="geometry">
            <mxPoint as="offset" />
          </mxGeometry>
        </mxCell>
        <mxCell id="KsKx78XivSGBJ-cQR83x-21" value="" style="endArrow=classic;startArrow=classic;html=1;fontColor=#FF3333;rounded=0;entryX=0.5;entryY=1;entryDx=0;entryDy=0;exitX=0.5;exitY=0;exitDx=0;exitDy=0;" parent="1" source="KsKx78XivSGBJ-cQR83x-13" target="KsKx78XivSGBJ-cQR83x-12" edge="1">
          <mxGeometry width="50" height="50" relative="1" as="geometry">
            <mxPoint x="880" y="200" as="sourcePoint" />
            <mxPoint x="930" y="150" as="targetPoint" />
          </mxGeometry>
        </mxCell>
        <mxCell id="KsKx78XivSGBJ-cQR83x-22" value="Config" style="edgeLabel;html=1;align=center;verticalAlign=middle;resizable=0;points=[];" parent="KsKx78XivSGBJ-cQR83x-21" vertex="1" connectable="0">
          <mxGeometry x="-0.3255" y="2" relative="1" as="geometry">
            <mxPoint as="offset" />
          </mxGeometry>
        </mxCell>
        <mxCell id="KsKx78XivSGBJ-cQR83x-23" value="" style="endArrow=classic;startArrow=classic;html=1;fontColor=#FF3333;rounded=0;exitX=1;exitY=0;exitDx=0;exitDy=0;entryX=0;entryY=0.75;entryDx=0;entryDy=0;" parent="1" source="KsKx78XivSGBJ-cQR83x-8" target="KsKx78XivSGBJ-cQR83x-12" edge="1">
          <mxGeometry width="50" height="50" relative="1" as="geometry">
            <mxPoint x="760" y="150" as="sourcePoint" />
            <mxPoint x="810" y="100" as="targetPoint" />
          </mxGeometry>
        </mxCell>
        <mxCell id="KsKx78XivSGBJ-cQR83x-24" value="Config" style="edgeLabel;html=1;align=center;verticalAlign=middle;resizable=0;points=[];" parent="KsKx78XivSGBJ-cQR83x-23" vertex="1" connectable="0">
          <mxGeometry x="-0.4077" y="1" relative="1" as="geometry">
            <mxPoint as="offset" />
          </mxGeometry>
        </mxCell>
        <mxCell id="KsKx78XivSGBJ-cQR83x-25" value="" style="endArrow=classic;startArrow=classic;html=1;fontColor=#FF3333;rounded=0;entryX=0;entryY=0.5;entryDx=0;entryDy=0;exitX=0.9;exitY=0.756;exitDx=0;exitDy=0;exitPerimeter=0;" parent="1" source="KsKx78XivSGBJ-cQR83x-8" target="KsKx78XivSGBJ-cQR83x-13" edge="1">
          <mxGeometry width="50" height="50" relative="1" as="geometry">
            <mxPoint x="740" y="340" as="sourcePoint" />
            <mxPoint x="790" y="290" as="targetPoint" />
          </mxGeometry>
        </mxCell>
        <mxCell id="KsKx78XivSGBJ-cQR83x-26" value="Messages" style="edgeLabel;html=1;align=center;verticalAlign=middle;resizable=0;points=[];" parent="KsKx78XivSGBJ-cQR83x-25" vertex="1" connectable="0">
          <mxGeometry x="0.2114" y="1" relative="1" as="geometry">
            <mxPoint as="offset" />
          </mxGeometry>
        </mxCell>
        <mxCell id="KsKx78XivSGBJ-cQR83x-32" value="User" style="rounded=0;whiteSpace=wrap;html=1;" parent="1" vertex="1">
          <mxGeometry x="90" y="80" width="120" height="60" as="geometry" />
        </mxCell>
        <mxCell id="KsKx78XivSGBJ-cQR83x-33" value="" style="endArrow=classic;startArrow=classic;html=1;fontColor=#FF3333;rounded=0;entryX=0.325;entryY=0.993;entryDx=0;entryDy=0;entryPerimeter=0;exitX=0;exitY=1;exitDx=0;exitDy=0;" parent="1" edge="1">
          <mxGeometry width="50" height="50" relative="1" as="geometry">
            <mxPoint x="231.71572875253787" y="188.28427124746213" as="sourcePoint" />
            <mxPoint x="129" y="139.57999999999993" as="targetPoint" />
          </mxGeometry>
        </mxCell>
        <mxCell id="KsKx78XivSGBJ-cQR83x-34" value="Open app" style="edgeLabel;html=1;align=center;verticalAlign=middle;resizable=0;points=[];" parent="KsKx78XivSGBJ-cQR83x-33" vertex="1" connectable="0">
          <mxGeometry x="0.2182" y="2" relative="1" as="geometry">
            <mxPoint as="offset" />
          </mxGeometry>
        </mxCell>
        <mxCell id="KsKx78XivSGBJ-cQR83x-35" value="User" style="rounded=0;whiteSpace=wrap;html=1;" parent="1" vertex="1">
          <mxGeometry x="90" y="350" width="120" height="60" as="geometry" />
        </mxCell>
        <mxCell id="KsKx78XivSGBJ-cQR83x-36" value="" style="endArrow=classic;startArrow=classic;html=1;fontColor=#FF3333;rounded=0;entryX=0.5;entryY=1;entryDx=0;entryDy=0;exitX=0.073;exitY=0.755;exitDx=0;exitDy=0;exitPerimeter=0;" parent="1" source="KsKx78XivSGBJ-cQR83x-2" target="KsKx78XivSGBJ-cQR83x-35" edge="1">
          <mxGeometry width="50" height="50" relative="1" as="geometry">
            <mxPoint x="140" y="480" as="sourcePoint" />
            <mxPoint x="190" y="430" as="targetPoint" />
          </mxGeometry>
        </mxCell>
        <mxCell id="KsKx78XivSGBJ-cQR83x-37" value="Open app" style="edgeLabel;html=1;align=center;verticalAlign=middle;resizable=0;points=[];" parent="KsKx78XivSGBJ-cQR83x-36" vertex="1" connectable="0">
          <mxGeometry x="0.1565" y="2" relative="1" as="geometry">
            <mxPoint as="offset" />
          </mxGeometry>
        </mxCell>
        <mxCell id="KsKx78XivSGBJ-cQR83x-49" value="Assets" style="shape=table;startSize=30;container=1;collapsible=0;childLayout=tableLayout;fixedRows=1;rowLines=0;fontStyle=0;strokeColor=#d6b656;fontSize=16;fillColor=#fff2cc;" parent="1" vertex="1">
          <mxGeometry x="234" y="680" width="236" height="210" as="geometry" />
        </mxCell>
        <mxCell id="KsKx78XivSGBJ-cQR83x-50" value="" style="shape=tableRow;horizontal=0;startSize=0;swimlaneHead=0;swimlaneBody=0;top=0;left=0;bottom=0;right=0;collapsible=0;dropTarget=0;fillColor=none;points=[[0,0.5],[1,0.5]];portConstraint=eastwest;strokeColor=inherit;fontSize=16;" parent="KsKx78XivSGBJ-cQR83x-49" vertex="1">
          <mxGeometry y="30" width="236" height="30" as="geometry" />
        </mxCell>
        <mxCell id="KsKx78XivSGBJ-cQR83x-51" value="ID" style="shape=partialRectangle;html=1;whiteSpace=wrap;connectable=0;fillColor=#fff2cc;top=0;left=0;bottom=1;right=0;overflow=hidden;pointerEvents=1;strokeColor=#d6b656;fontSize=16;" parent="KsKx78XivSGBJ-cQR83x-50" vertex="1">
          <mxGeometry width="52" height="30" as="geometry">
            <mxRectangle width="52" height="30" as="alternateBounds" />
          </mxGeometry>
        </mxCell>
        <mxCell id="KsKx78XivSGBJ-cQR83x-52" value="Description" style="shape=partialRectangle;html=1;whiteSpace=wrap;connectable=0;fillColor=#fff2cc;top=0;left=0;bottom=1;right=0;align=left;spacingLeft=6;overflow=hidden;strokeColor=#d6b656;fontSize=16;" parent="KsKx78XivSGBJ-cQR83x-50" vertex="1">
          <mxGeometry x="52" width="184" height="30" as="geometry">
            <mxRectangle width="184" height="30" as="alternateBounds" />
          </mxGeometry>
        </mxCell>
        <mxCell id="KsKx78XivSGBJ-cQR83x-53" value="" style="shape=tableRow;horizontal=0;startSize=0;swimlaneHead=0;swimlaneBody=0;top=0;left=0;bottom=0;right=0;collapsible=0;dropTarget=0;fillColor=none;points=[[0,0.5],[1,0.5]];portConstraint=eastwest;strokeColor=inherit;fontSize=16;" parent="KsKx78XivSGBJ-cQR83x-49" vertex="1">
          <mxGeometry y="60" width="236" height="30" as="geometry" />
        </mxCell>
        <mxCell id="KsKx78XivSGBJ-cQR83x-54" value="A01" style="shape=partialRectangle;html=1;whiteSpace=wrap;connectable=0;fillColor=none;top=0;left=0;bottom=0;right=0;overflow=hidden;strokeColor=inherit;fontSize=16;" parent="KsKx78XivSGBJ-cQR83x-53" vertex="1">
          <mxGeometry width="52" height="30" as="geometry">
            <mxRectangle width="52" height="30" as="alternateBounds" />
          </mxGeometry>
        </mxCell>
        <mxCell id="KsKx78XivSGBJ-cQR83x-55" value="Source code" style="shape=partialRectangle;html=1;whiteSpace=wrap;connectable=0;fillColor=none;top=0;left=0;bottom=0;right=0;align=left;spacingLeft=6;overflow=hidden;strokeColor=inherit;fontSize=16;" parent="KsKx78XivSGBJ-cQR83x-53" vertex="1">
          <mxGeometry x="52" width="184" height="30" as="geometry">
            <mxRectangle width="184" height="30" as="alternateBounds" />
          </mxGeometry>
        </mxCell>
        <mxCell id="KsKx78XivSGBJ-cQR83x-56" value="" style="shape=tableRow;horizontal=0;startSize=0;swimlaneHead=0;swimlaneBody=0;top=0;left=0;bottom=0;right=0;collapsible=0;dropTarget=0;fillColor=none;points=[[0,0.5],[1,0.5]];portConstraint=eastwest;strokeColor=inherit;fontSize=16;" parent="KsKx78XivSGBJ-cQR83x-49" vertex="1">
          <mxGeometry y="90" width="236" height="30" as="geometry" />
        </mxCell>
        <mxCell id="KsKx78XivSGBJ-cQR83x-57" value="A02" style="shape=partialRectangle;html=1;whiteSpace=wrap;connectable=0;fillColor=none;top=0;left=0;bottom=0;right=0;overflow=hidden;strokeColor=inherit;fontSize=16;" parent="KsKx78XivSGBJ-cQR83x-56" vertex="1">
          <mxGeometry width="52" height="30" as="geometry">
            <mxRectangle width="52" height="30" as="alternateBounds" />
          </mxGeometry>
        </mxCell>
        <mxCell id="KsKx78XivSGBJ-cQR83x-58" value="Root credentials" style="shape=partialRectangle;html=1;whiteSpace=wrap;connectable=0;fillColor=none;top=0;left=0;bottom=0;right=0;align=left;spacingLeft=6;overflow=hidden;strokeColor=inherit;fontSize=16;" parent="KsKx78XivSGBJ-cQR83x-56" vertex="1">
          <mxGeometry x="52" width="184" height="30" as="geometry">
            <mxRectangle width="184" height="30" as="alternateBounds" />
          </mxGeometry>
        </mxCell>
        <mxCell id="KsKx78XivSGBJ-cQR83x-60" value="" style="shape=tableRow;horizontal=0;startSize=0;swimlaneHead=0;swimlaneBody=0;top=0;left=0;bottom=0;right=0;collapsible=0;dropTarget=0;fillColor=none;points=[[0,0.5],[1,0.5]];portConstraint=eastwest;strokeColor=inherit;fontSize=16;" parent="KsKx78XivSGBJ-cQR83x-49" vertex="1">
          <mxGeometry y="120" width="236" height="30" as="geometry" />
        </mxCell>
        <mxCell id="KsKx78XivSGBJ-cQR83x-61" value="A03" style="shape=partialRectangle;html=1;whiteSpace=wrap;connectable=0;fillColor=none;top=0;left=0;bottom=0;right=0;overflow=hidden;strokeColor=inherit;fontSize=16;" parent="KsKx78XivSGBJ-cQR83x-60" vertex="1">
          <mxGeometry width="52" height="30" as="geometry">
            <mxRectangle width="52" height="30" as="alternateBounds" />
          </mxGeometry>
        </mxCell>
        <mxCell id="KsKx78XivSGBJ-cQR83x-62" value="User messages" style="shape=partialRectangle;html=1;whiteSpace=wrap;connectable=0;fillColor=none;top=0;left=0;bottom=0;right=0;align=left;spacingLeft=6;overflow=hidden;strokeColor=inherit;fontSize=16;" parent="KsKx78XivSGBJ-cQR83x-60" vertex="1">
          <mxGeometry x="52" width="184" height="30" as="geometry">
            <mxRectangle width="184" height="30" as="alternateBounds" />
          </mxGeometry>
        </mxCell>
        <mxCell id="KsKx78XivSGBJ-cQR83x-64" value="" style="shape=tableRow;horizontal=0;startSize=0;swimlaneHead=0;swimlaneBody=0;top=0;left=0;bottom=0;right=0;collapsible=0;dropTarget=0;fillColor=none;points=[[0,0.5],[1,0.5]];portConstraint=eastwest;strokeColor=inherit;fontSize=16;" parent="KsKx78XivSGBJ-cQR83x-49" vertex="1">
          <mxGeometry y="150" width="236" height="30" as="geometry" />
        </mxCell>
        <mxCell id="KsKx78XivSGBJ-cQR83x-65" value="A04" style="shape=partialRectangle;html=1;whiteSpace=wrap;connectable=0;fillColor=none;top=0;left=0;bottom=0;right=0;overflow=hidden;strokeColor=inherit;fontSize=16;" parent="KsKx78XivSGBJ-cQR83x-64" vertex="1">
          <mxGeometry width="52" height="30" as="geometry">
            <mxRectangle width="52" height="30" as="alternateBounds" />
          </mxGeometry>
        </mxCell>
        <mxCell id="KsKx78XivSGBJ-cQR83x-66" value="Database credentials" style="shape=partialRectangle;html=1;whiteSpace=wrap;connectable=0;fillColor=none;top=0;left=0;bottom=0;right=0;align=left;spacingLeft=6;overflow=hidden;strokeColor=inherit;fontSize=16;" parent="KsKx78XivSGBJ-cQR83x-64" vertex="1">
          <mxGeometry x="52" width="184" height="30" as="geometry">
            <mxRectangle width="184" height="30" as="alternateBounds" />
          </mxGeometry>
        </mxCell>
        <mxCell id="KsKx78XivSGBJ-cQR83x-68" value="" style="shape=tableRow;horizontal=0;startSize=0;swimlaneHead=0;swimlaneBody=0;top=0;left=0;bottom=0;right=0;collapsible=0;dropTarget=0;fillColor=none;points=[[0,0.5],[1,0.5]];portConstraint=eastwest;strokeColor=inherit;fontSize=16;" parent="KsKx78XivSGBJ-cQR83x-49" vertex="1">
          <mxGeometry y="180" width="236" height="30" as="geometry" />
        </mxCell>
        <mxCell id="KsKx78XivSGBJ-cQR83x-69" value="" style="shape=partialRectangle;html=1;whiteSpace=wrap;connectable=0;fillColor=none;top=0;left=0;bottom=0;right=0;overflow=hidden;strokeColor=inherit;fontSize=16;" parent="KsKx78XivSGBJ-cQR83x-68" vertex="1">
          <mxGeometry width="52" height="30" as="geometry">
            <mxRectangle width="52" height="30" as="alternateBounds" />
          </mxGeometry>
        </mxCell>
        <mxCell id="KsKx78XivSGBJ-cQR83x-70" value="" style="shape=partialRectangle;html=1;whiteSpace=wrap;connectable=0;fillColor=none;top=0;left=0;bottom=0;right=0;align=left;spacingLeft=6;overflow=hidden;strokeColor=inherit;fontSize=16;" parent="KsKx78XivSGBJ-cQR83x-68" vertex="1">
          <mxGeometry x="52" width="184" height="30" as="geometry">
            <mxRectangle width="184" height="30" as="alternateBounds" />
          </mxGeometry>
        </mxCell>
        <UserObject label="&lt;b&gt;A02&lt;/b&gt;" placeholders="1" name="Variable" id="KsKx78XivSGBJ-cQR83x-59">
          <mxCell style="text;html=1;strokeColor=#d6b656;fillColor=#fff2cc;align=center;verticalAlign=middle;whiteSpace=wrap;overflow=hidden;" parent="1" vertex="1">
            <mxGeometry x="960" y="20" width="40" height="20" as="geometry" />
          </mxCell>
        </UserObject>
        <UserObject label="&lt;b&gt;A03&lt;/b&gt;" placeholders="1" name="Variable" id="KsKx78XivSGBJ-cQR83x-63">
          <mxCell style="text;html=1;strokeColor=#d6b656;fillColor=#fff2cc;align=center;verticalAlign=middle;whiteSpace=wrap;overflow=hidden;" parent="1" vertex="1">
            <mxGeometry x="935" y="260" width="40" height="20" as="geometry" />
          </mxCell>
        </UserObject>
        <UserObject label="&lt;b&gt;A04&lt;/b&gt;" placeholders="1" name="Variable" id="KsKx78XivSGBJ-cQR83x-67">
          <mxCell style="text;html=1;strokeColor=#d6b656;fillColor=#fff2cc;align=center;verticalAlign=middle;whiteSpace=wrap;overflow=hidden;" parent="1" vertex="1">
            <mxGeometry x="750" y="200" width="40" height="20" as="geometry" />
          </mxCell>
        </UserObject>
        <UserObject label="&lt;b&gt;A03&lt;/b&gt;" placeholders="1" name="Variable" id="KsKx78XivSGBJ-cQR83x-71">
          <mxCell style="text;html=1;strokeColor=#d6b656;fillColor=#fff2cc;align=center;verticalAlign=middle;whiteSpace=wrap;overflow=hidden;" parent="1" vertex="1">
            <mxGeometry x="280" y="485" width="40" height="20" as="geometry" />
          </mxCell>
        </UserObject>
        <UserObject label="&lt;b&gt;A03&lt;/b&gt;" placeholders="1" name="Variable" id="KsKx78XivSGBJ-cQR83x-72">
          <mxCell style="text;html=1;strokeColor=#d6b656;fillColor=#fff2cc;align=center;verticalAlign=middle;whiteSpace=wrap;overflow=hidden;" parent="1" vertex="1">
            <mxGeometry x="280" y="100" width="40" height="20" as="geometry" />
          </mxCell>
        </UserObject>
        <UserObject label="&lt;b&gt;A03&lt;/b&gt;" placeholders="1" name="Variable" id="KsKx78XivSGBJ-cQR83x-73">
          <mxCell style="text;html=1;strokeColor=#d6b656;fillColor=#fff2cc;align=center;verticalAlign=middle;whiteSpace=wrap;overflow=hidden;" parent="1" vertex="1">
            <mxGeometry x="750" y="170" width="40" height="20" as="geometry" />
          </mxCell>
        </UserObject>
        <mxCell id="KsKx78XivSGBJ-cQR83x-74" value="Threath actors" style="shape=table;startSize=30;container=1;collapsible=0;childLayout=tableLayout;fixedRows=1;rowLines=0;fontStyle=0;strokeColor=#b85450;fontSize=16;fillColor=#f8cecc;" parent="1" vertex="1">
          <mxGeometry x="530" y="690" width="236" height="250" as="geometry" />
        </mxCell>
        <mxCell id="KsKx78XivSGBJ-cQR83x-75" value="" style="shape=tableRow;horizontal=0;startSize=0;swimlaneHead=0;swimlaneBody=0;top=0;left=0;bottom=0;right=0;collapsible=0;dropTarget=0;fillColor=none;points=[[0,0.5],[1,0.5]];portConstraint=eastwest;strokeColor=inherit;fontSize=16;" parent="KsKx78XivSGBJ-cQR83x-74" vertex="1">
          <mxGeometry y="30" width="236" height="30" as="geometry" />
        </mxCell>
        <mxCell id="KsKx78XivSGBJ-cQR83x-76" value="ID" style="shape=partialRectangle;html=1;whiteSpace=wrap;connectable=0;fillColor=#f8cecc;top=0;left=0;bottom=1;right=0;overflow=hidden;pointerEvents=1;strokeColor=#b85450;fontSize=16;" parent="KsKx78XivSGBJ-cQR83x-75" vertex="1">
          <mxGeometry width="52" height="30" as="geometry">
            <mxRectangle width="52" height="30" as="alternateBounds" />
          </mxGeometry>
        </mxCell>
        <mxCell id="KsKx78XivSGBJ-cQR83x-77" value="Description" style="shape=partialRectangle;html=1;whiteSpace=wrap;connectable=0;fillColor=#f8cecc;top=0;left=0;bottom=1;right=0;align=left;spacingLeft=6;overflow=hidden;strokeColor=#b85450;fontSize=16;" parent="KsKx78XivSGBJ-cQR83x-75" vertex="1">
          <mxGeometry x="52" width="184" height="30" as="geometry">
            <mxRectangle width="184" height="30" as="alternateBounds" />
          </mxGeometry>
        </mxCell>
        <mxCell id="KsKx78XivSGBJ-cQR83x-78" value="" style="shape=tableRow;horizontal=0;startSize=0;swimlaneHead=0;swimlaneBody=0;top=0;left=0;bottom=0;right=0;collapsible=0;dropTarget=0;fillColor=none;points=[[0,0.5],[1,0.5]];portConstraint=eastwest;strokeColor=inherit;fontSize=16;" parent="KsKx78XivSGBJ-cQR83x-74" vertex="1">
          <mxGeometry y="60" width="236" height="30" as="geometry" />
        </mxCell>
        <mxCell id="KsKx78XivSGBJ-cQR83x-79" value="TA01" style="shape=partialRectangle;html=1;whiteSpace=wrap;connectable=0;fillColor=none;top=0;left=0;bottom=0;right=0;overflow=hidden;strokeColor=inherit;fontSize=16;" parent="KsKx78XivSGBJ-cQR83x-78" vertex="1">
          <mxGeometry width="52" height="30" as="geometry">
            <mxRectangle width="52" height="30" as="alternateBounds" />
          </mxGeometry>
        </mxCell>
        <mxCell id="KsKx78XivSGBJ-cQR83x-80" value="Malicious user" style="shape=partialRectangle;html=1;whiteSpace=wrap;connectable=0;fillColor=none;top=0;left=0;bottom=0;right=0;align=left;spacingLeft=6;overflow=hidden;strokeColor=inherit;fontSize=16;" parent="KsKx78XivSGBJ-cQR83x-78" vertex="1">
          <mxGeometry x="52" width="184" height="30" as="geometry">
            <mxRectangle width="184" height="30" as="alternateBounds" />
          </mxGeometry>
        </mxCell>
        <mxCell id="KsKx78XivSGBJ-cQR83x-81" value="" style="shape=tableRow;horizontal=0;startSize=0;swimlaneHead=0;swimlaneBody=0;top=0;left=0;bottom=0;right=0;collapsible=0;dropTarget=0;fillColor=none;points=[[0,0.5],[1,0.5]];portConstraint=eastwest;strokeColor=inherit;fontSize=16;" parent="KsKx78XivSGBJ-cQR83x-74" vertex="1">
          <mxGeometry y="90" width="236" height="30" as="geometry" />
        </mxCell>
        <mxCell id="KsKx78XivSGBJ-cQR83x-82" value="TA02" style="shape=partialRectangle;html=1;whiteSpace=wrap;connectable=0;fillColor=none;top=0;left=0;bottom=0;right=0;overflow=hidden;strokeColor=inherit;fontSize=16;" parent="KsKx78XivSGBJ-cQR83x-81" vertex="1">
          <mxGeometry width="52" height="30" as="geometry">
            <mxRectangle width="52" height="30" as="alternateBounds" />
          </mxGeometry>
        </mxCell>
        <mxCell id="KsKx78XivSGBJ-cQR83x-83" value="Malicious admin" style="shape=partialRectangle;html=1;whiteSpace=wrap;connectable=0;fillColor=none;top=0;left=0;bottom=0;right=0;align=left;spacingLeft=6;overflow=hidden;strokeColor=inherit;fontSize=16;" parent="KsKx78XivSGBJ-cQR83x-81" vertex="1">
          <mxGeometry x="52" width="184" height="30" as="geometry">
            <mxRectangle width="184" height="30" as="alternateBounds" />
          </mxGeometry>
        </mxCell>
        <mxCell id="KsKx78XivSGBJ-cQR83x-84" value="" style="shape=tableRow;horizontal=0;startSize=0;swimlaneHead=0;swimlaneBody=0;top=0;left=0;bottom=0;right=0;collapsible=0;dropTarget=0;fillColor=none;points=[[0,0.5],[1,0.5]];portConstraint=eastwest;strokeColor=inherit;fontSize=16;" parent="KsKx78XivSGBJ-cQR83x-74" vertex="1">
          <mxGeometry y="120" width="236" height="40" as="geometry" />
        </mxCell>
        <mxCell id="KsKx78XivSGBJ-cQR83x-85" value="TA03" style="shape=partialRectangle;html=1;whiteSpace=wrap;connectable=0;fillColor=none;top=0;left=0;bottom=0;right=0;overflow=hidden;strokeColor=inherit;fontSize=16;" parent="KsKx78XivSGBJ-cQR83x-84" vertex="1">
          <mxGeometry width="52" height="40" as="geometry">
            <mxRectangle width="52" height="40" as="alternateBounds" />
          </mxGeometry>
        </mxCell>
        <mxCell id="KsKx78XivSGBJ-cQR83x-86" value="Internet attacker" style="shape=partialRectangle;html=1;whiteSpace=wrap;connectable=0;fillColor=none;top=0;left=0;bottom=0;right=0;align=left;spacingLeft=6;overflow=hidden;strokeColor=inherit;fontSize=16;" parent="KsKx78XivSGBJ-cQR83x-84" vertex="1">
          <mxGeometry x="52" width="184" height="40" as="geometry">
            <mxRectangle width="184" height="40" as="alternateBounds" />
          </mxGeometry>
        </mxCell>
        <mxCell id="KsKx78XivSGBJ-cQR83x-87" value="" style="shape=tableRow;horizontal=0;startSize=0;swimlaneHead=0;swimlaneBody=0;top=0;left=0;bottom=0;right=0;collapsible=0;dropTarget=0;fillColor=none;points=[[0,0.5],[1,0.5]];portConstraint=eastwest;strokeColor=inherit;fontSize=16;" parent="KsKx78XivSGBJ-cQR83x-74" vertex="1">
          <mxGeometry y="160" width="236" height="30" as="geometry" />
        </mxCell>
        <mxCell id="KsKx78XivSGBJ-cQR83x-88" value="TA04" style="shape=partialRectangle;html=1;whiteSpace=wrap;connectable=0;fillColor=none;top=0;left=0;bottom=0;right=0;overflow=hidden;strokeColor=inherit;fontSize=16;" parent="KsKx78XivSGBJ-cQR83x-87" vertex="1">
          <mxGeometry width="52" height="30" as="geometry">
            <mxRectangle width="52" height="30" as="alternateBounds" />
          </mxGeometry>
        </mxCell>
        <mxCell id="KsKx78XivSGBJ-cQR83x-89" value="Malicious intruder" style="shape=partialRectangle;html=1;whiteSpace=wrap;connectable=0;fillColor=none;top=0;left=0;bottom=0;right=0;align=left;spacingLeft=6;overflow=hidden;strokeColor=inherit;fontSize=16;" parent="KsKx78XivSGBJ-cQR83x-87" vertex="1">
          <mxGeometry x="52" width="184" height="30" as="geometry">
            <mxRectangle width="184" height="30" as="alternateBounds" />
          </mxGeometry>
        </mxCell>
        <mxCell id="KsKx78XivSGBJ-cQR83x-90" value="" style="shape=tableRow;horizontal=0;startSize=0;swimlaneHead=0;swimlaneBody=0;top=0;left=0;bottom=0;right=0;collapsible=0;dropTarget=0;fillColor=none;points=[[0,0.5],[1,0.5]];portConstraint=eastwest;strokeColor=inherit;fontSize=16;" parent="KsKx78XivSGBJ-cQR83x-74" vertex="1">
          <mxGeometry y="190" width="236" height="30" as="geometry" />
        </mxCell>
        <mxCell id="KsKx78XivSGBJ-cQR83x-91" value="TA05" style="shape=partialRectangle;html=1;whiteSpace=wrap;connectable=0;fillColor=none;top=0;left=0;bottom=0;right=0;overflow=hidden;strokeColor=inherit;fontSize=16;" parent="KsKx78XivSGBJ-cQR83x-90" vertex="1">
          <mxGeometry width="52" height="30" as="geometry">
            <mxRectangle width="52" height="30" as="alternateBounds" />
          </mxGeometry>
        </mxCell>
        <mxCell id="KsKx78XivSGBJ-cQR83x-92" value="LAN attacker" style="shape=partialRectangle;html=1;whiteSpace=wrap;connectable=0;fillColor=none;top=0;left=0;bottom=0;right=0;align=left;spacingLeft=6;overflow=hidden;strokeColor=inherit;fontSize=16;" parent="KsKx78XivSGBJ-cQR83x-90" vertex="1">
          <mxGeometry x="52" width="184" height="30" as="geometry">
            <mxRectangle width="184" height="30" as="alternateBounds" />
          </mxGeometry>
        </mxCell>
        <mxCell id="KsKx78XivSGBJ-cQR83x-102" value="" style="shape=tableRow;horizontal=0;startSize=0;swimlaneHead=0;swimlaneBody=0;top=0;left=0;bottom=0;right=0;collapsible=0;dropTarget=0;fillColor=none;points=[[0,0.5],[1,0.5]];portConstraint=eastwest;strokeColor=inherit;fontSize=16;" parent="KsKx78XivSGBJ-cQR83x-74" vertex="1">
          <mxGeometry y="220" width="236" height="30" as="geometry" />
        </mxCell>
        <mxCell id="KsKx78XivSGBJ-cQR83x-103" value="" style="shape=partialRectangle;html=1;whiteSpace=wrap;connectable=0;fillColor=none;top=0;left=0;bottom=0;right=0;overflow=hidden;strokeColor=inherit;fontSize=16;" parent="KsKx78XivSGBJ-cQR83x-102" vertex="1">
          <mxGeometry width="52" height="30" as="geometry">
            <mxRectangle width="52" height="30" as="alternateBounds" />
          </mxGeometry>
        </mxCell>
        <mxCell id="KsKx78XivSGBJ-cQR83x-104" value="" style="shape=partialRectangle;html=1;whiteSpace=wrap;connectable=0;fillColor=none;top=0;left=0;bottom=0;right=0;align=left;spacingLeft=6;overflow=hidden;strokeColor=inherit;fontSize=16;" parent="KsKx78XivSGBJ-cQR83x-102" vertex="1">
          <mxGeometry x="52" width="184" height="30" as="geometry">
            <mxRectangle width="184" height="30" as="alternateBounds" />
          </mxGeometry>
        </mxCell>
        <UserObject label="&lt;b&gt;TA01&lt;/b&gt;" placeholders="1" name="Variable" id="KsKx78XivSGBJ-cQR83x-93">
          <mxCell style="text;html=1;strokeColor=#b85450;fillColor=#f8cecc;align=center;verticalAlign=middle;whiteSpace=wrap;overflow=hidden;" parent="1" vertex="1">
            <mxGeometry x="270" y="350" width="40" height="20" as="geometry" />
          </mxCell>
        </UserObject>
        <UserObject label="&lt;b&gt;TA01&lt;/b&gt;" placeholders="1" name="Variable" id="KsKx78XivSGBJ-cQR83x-94">
          <mxCell style="text;html=1;strokeColor=#b85450;fillColor=#f8cecc;align=center;verticalAlign=middle;whiteSpace=wrap;overflow=hidden;" parent="1" vertex="1">
            <mxGeometry x="260" y="60" width="40" height="20" as="geometry" />
          </mxCell>
        </UserObject>
        <UserObject label="&lt;b&gt;TA02&lt;/b&gt;" placeholders="1" name="Variable" id="KsKx78XivSGBJ-cQR83x-95">
          <mxCell style="text;html=1;strokeColor=#b85450;fillColor=#f8cecc;align=center;verticalAlign=middle;whiteSpace=wrap;overflow=hidden;" parent="1" vertex="1">
            <mxGeometry x="960" y="100" width="40" height="20" as="geometry" />
          </mxCell>
        </UserObject>
        <UserObject label="&lt;b&gt;TA04&lt;/b&gt;" placeholders="1" name="Variable" id="KsKx78XivSGBJ-cQR83x-96">
          <mxCell style="text;html=1;strokeColor=#b85450;fillColor=#f8cecc;align=center;verticalAlign=middle;whiteSpace=wrap;overflow=hidden;" parent="1" vertex="1">
            <mxGeometry x="110" y="190" width="40" height="20" as="geometry" />
          </mxCell>
        </UserObject>
        <UserObject label="&lt;b&gt;TA04&lt;/b&gt;" placeholders="1" name="Variable" id="KsKx78XivSGBJ-cQR83x-97">
          <mxCell style="text;html=1;strokeColor=#b85450;fillColor=#f8cecc;align=center;verticalAlign=middle;whiteSpace=wrap;overflow=hidden;" parent="1" vertex="1">
            <mxGeometry x="120" y="480" width="40" height="20" as="geometry" />
          </mxCell>
        </UserObject>
        <UserObject label="&lt;b&gt;TA04&lt;/b&gt;" placeholders="1" name="Variable" id="KsKx78XivSGBJ-cQR83x-99">
          <mxCell style="text;html=1;strokeColor=#b85450;fillColor=#f8cecc;align=center;verticalAlign=middle;whiteSpace=wrap;overflow=hidden;" parent="1" vertex="1">
            <mxGeometry x="750" y="50" width="40" height="20" as="geometry" />
          </mxCell>
        </UserObject>
        <UserObject label="&lt;b&gt;TA04&lt;/b&gt;" placeholders="1" name="Variable" id="KsKx78XivSGBJ-cQR83x-100">
          <mxCell style="text;html=1;strokeColor=#b85450;fillColor=#f8cecc;align=center;verticalAlign=middle;whiteSpace=wrap;overflow=hidden;" parent="1" vertex="1">
            <mxGeometry x="960" y="320" width="40" height="20" as="geometry" />
          </mxCell>
        </UserObject>
        <UserObject label="&lt;b&gt;TA03&lt;/b&gt;" placeholders="1" name="Variable" id="KsKx78XivSGBJ-cQR83x-101">
          <mxCell style="text;html=1;strokeColor=#b85450;fillColor=#f8cecc;align=center;verticalAlign=middle;whiteSpace=wrap;overflow=hidden;" parent="1" vertex="1">
            <mxGeometry x="450" y="-20" width="40" height="20" as="geometry" />
          </mxCell>
        </UserObject>
        <UserObject label="&lt;b&gt;TA05&lt;/b&gt;" placeholders="1" name="Variable" id="KsKx78XivSGBJ-cQR83x-105">
          <mxCell style="text;html=1;strokeColor=#b85450;fillColor=#f8cecc;align=center;verticalAlign=middle;whiteSpace=wrap;overflow=hidden;" parent="1" vertex="1">
            <mxGeometry x="380" y="50" width="40" height="20" as="geometry" />
          </mxCell>
        </UserObject>
        <UserObject label="&lt;b&gt;TA05&lt;/b&gt;" placeholders="1" name="Variable" id="KsKx78XivSGBJ-cQR83x-106">
          <mxCell style="text;html=1;strokeColor=#b85450;fillColor=#f8cecc;align=center;verticalAlign=middle;whiteSpace=wrap;overflow=hidden;" parent="1" vertex="1">
            <mxGeometry x="380" y="320" width="40" height="20" as="geometry" />
          </mxCell>
        </UserObject>
        <mxCell id="KsKx78XivSGBJ-cQR83x-131" value="Threaths or attack vectors" style="shape=table;startSize=30;container=1;collapsible=0;childLayout=tableLayout;fixedRows=1;rowLines=0;fontStyle=0;strokeColor=#b85450;fontSize=16;fillColor=#f8cecc;" parent="1" vertex="1">
          <mxGeometry x="837" y="700" width="236" height="160.00000000000045" as="geometry" />
        </mxCell>
        <mxCell id="KsKx78XivSGBJ-cQR83x-132" value="" style="shape=tableRow;horizontal=0;startSize=0;swimlaneHead=0;swimlaneBody=0;top=0;left=0;bottom=0;right=0;collapsible=0;dropTarget=0;fillColor=none;points=[[0,0.5],[1,0.5]];portConstraint=eastwest;strokeColor=inherit;fontSize=16;" parent="KsKx78XivSGBJ-cQR83x-131" vertex="1">
          <mxGeometry y="30" width="236" height="30" as="geometry" />
        </mxCell>
        <mxCell id="KsKx78XivSGBJ-cQR83x-133" value="ID" style="shape=partialRectangle;html=1;whiteSpace=wrap;connectable=0;fillColor=#f8cecc;top=0;left=0;bottom=1;right=0;overflow=hidden;pointerEvents=1;strokeColor=#b85450;fontSize=16;" parent="KsKx78XivSGBJ-cQR83x-132" vertex="1">
          <mxGeometry width="52" height="30" as="geometry">
            <mxRectangle width="52" height="30" as="alternateBounds" />
          </mxGeometry>
        </mxCell>
        <mxCell id="KsKx78XivSGBJ-cQR83x-134" value="Description" style="shape=partialRectangle;html=1;whiteSpace=wrap;connectable=0;fillColor=#f8cecc;top=0;left=0;bottom=1;right=0;align=left;spacingLeft=6;overflow=hidden;strokeColor=#b85450;fontSize=16;" parent="KsKx78XivSGBJ-cQR83x-132" vertex="1">
          <mxGeometry x="52" width="184" height="30" as="geometry">
            <mxRectangle width="184" height="30" as="alternateBounds" />
          </mxGeometry>
        </mxCell>
        <mxCell id="KsKx78XivSGBJ-cQR83x-135" value="" style="shape=tableRow;horizontal=0;startSize=0;swimlaneHead=0;swimlaneBody=0;top=0;left=0;bottom=0;right=0;collapsible=0;dropTarget=0;fillColor=none;points=[[0,0.5],[1,0.5]];portConstraint=eastwest;strokeColor=inherit;fontSize=16;" parent="KsKx78XivSGBJ-cQR83x-131" vertex="1">
          <mxGeometry y="60" width="236" height="30" as="geometry" />
        </mxCell>
        <mxCell id="KsKx78XivSGBJ-cQR83x-136" value="T01" style="shape=partialRectangle;html=1;whiteSpace=wrap;connectable=0;fillColor=none;top=0;left=0;bottom=0;right=0;overflow=hidden;strokeColor=inherit;fontSize=16;" parent="KsKx78XivSGBJ-cQR83x-135" vertex="1">
          <mxGeometry width="52" height="30" as="geometry">
            <mxRectangle width="52" height="30" as="alternateBounds" />
          </mxGeometry>
        </mxCell>
        <mxCell id="KsKx78XivSGBJ-cQR83x-137" value="MITM" style="shape=partialRectangle;html=1;whiteSpace=wrap;connectable=0;fillColor=none;top=0;left=0;bottom=0;right=0;align=left;spacingLeft=6;overflow=hidden;strokeColor=inherit;fontSize=16;" parent="KsKx78XivSGBJ-cQR83x-135" vertex="1">
          <mxGeometry x="52" width="184" height="30" as="geometry">
            <mxRectangle width="184" height="30" as="alternateBounds" />
          </mxGeometry>
        </mxCell>
        <mxCell id="KsKx78XivSGBJ-cQR83x-138" value="" style="shape=tableRow;horizontal=0;startSize=0;swimlaneHead=0;swimlaneBody=0;top=0;left=0;bottom=0;right=0;collapsible=0;dropTarget=0;fillColor=none;points=[[0,0.5],[1,0.5]];portConstraint=eastwest;strokeColor=inherit;fontSize=16;" parent="KsKx78XivSGBJ-cQR83x-131" vertex="1">
          <mxGeometry y="90" width="236" height="30" as="geometry" />
        </mxCell>
        <mxCell id="KsKx78XivSGBJ-cQR83x-139" value="T02" style="shape=partialRectangle;html=1;whiteSpace=wrap;connectable=0;fillColor=none;top=0;left=0;bottom=0;right=0;overflow=hidden;strokeColor=inherit;fontSize=16;" parent="KsKx78XivSGBJ-cQR83x-138" vertex="1">
          <mxGeometry width="52" height="30" as="geometry">
            <mxRectangle width="52" height="30" as="alternateBounds" />
          </mxGeometry>
        </mxCell>
        <mxCell id="KsKx78XivSGBJ-cQR83x-140" value="SQL injection" style="shape=partialRectangle;html=1;whiteSpace=wrap;connectable=0;fillColor=none;top=0;left=0;bottom=0;right=0;align=left;spacingLeft=6;overflow=hidden;strokeColor=inherit;fontSize=16;" parent="KsKx78XivSGBJ-cQR83x-138" vertex="1">
          <mxGeometry x="52" width="184" height="30" as="geometry">
            <mxRectangle width="184" height="30" as="alternateBounds" />
          </mxGeometry>
        </mxCell>
        <mxCell id="KsKx78XivSGBJ-cQR83x-141" value="" style="shape=tableRow;horizontal=0;startSize=0;swimlaneHead=0;swimlaneBody=0;top=0;left=0;bottom=0;right=0;collapsible=0;dropTarget=0;fillColor=none;points=[[0,0.5],[1,0.5]];portConstraint=eastwest;strokeColor=inherit;fontSize=16;" parent="KsKx78XivSGBJ-cQR83x-131" vertex="1">
          <mxGeometry y="120" width="236" height="40" as="geometry" />
        </mxCell>
        <mxCell id="KsKx78XivSGBJ-cQR83x-142" value="" style="shape=partialRectangle;html=1;whiteSpace=wrap;connectable=0;fillColor=none;top=0;left=0;bottom=0;right=0;overflow=hidden;strokeColor=inherit;fontSize=16;" parent="KsKx78XivSGBJ-cQR83x-141" vertex="1">
          <mxGeometry width="52" height="40" as="geometry">
            <mxRectangle width="52" height="40" as="alternateBounds" />
          </mxGeometry>
        </mxCell>
        <mxCell id="KsKx78XivSGBJ-cQR83x-143" value="" style="shape=partialRectangle;html=1;whiteSpace=wrap;connectable=0;fillColor=none;top=0;left=0;bottom=0;right=0;align=left;spacingLeft=6;overflow=hidden;strokeColor=inherit;fontSize=16;" parent="KsKx78XivSGBJ-cQR83x-141" vertex="1">
          <mxGeometry x="52" width="184" height="40" as="geometry">
            <mxRectangle width="184" height="40" as="alternateBounds" />
          </mxGeometry>
        </mxCell>
        <UserObject label="&lt;b&gt;T01&lt;/b&gt;" placeholders="1" name="Variable" id="KsKx78XivSGBJ-cQR83x-156">
          <mxCell style="text;html=1;strokeColor=#b85450;fillColor=#f8cecc;align=center;verticalAlign=middle;whiteSpace=wrap;overflow=hidden;" parent="1" vertex="1">
            <mxGeometry x="530" y="160" width="40" height="20" as="geometry" />
          </mxCell>
        </UserObject>
        <UserObject label="&lt;b&gt;T01&lt;/b&gt;" placeholders="1" name="Variable" id="KsKx78XivSGBJ-cQR83x-157">
          <mxCell style="text;html=1;strokeColor=#b85450;fillColor=#f8cecc;align=center;verticalAlign=middle;whiteSpace=wrap;overflow=hidden;" parent="1" vertex="1">
            <mxGeometry x="520" y="270" width="40" height="20" as="geometry" />
          </mxCell>
        </UserObject>
        <UserObject label="&lt;b&gt;T02&lt;/b&gt;" placeholders="1" name="Variable" id="KsKx78XivSGBJ-cQR83x-158">
          <mxCell style="text;html=1;strokeColor=#b85450;fillColor=#f8cecc;align=center;verticalAlign=middle;whiteSpace=wrap;overflow=hidden;" parent="1" vertex="1">
            <mxGeometry x="685" y="230" width="40" height="20" as="geometry" />
          </mxCell>
        </UserObject>
        <UserObject label="&lt;b&gt;T02&lt;/b&gt;" placeholders="1" name="Variable" id="KsKx78XivSGBJ-cQR83x-160">
          <mxCell style="text;html=1;strokeColor=#b85450;fillColor=#f8cecc;align=center;verticalAlign=middle;whiteSpace=wrap;overflow=hidden;" parent="1" vertex="1">
            <mxGeometry x="855" y="300" width="40" height="20" as="geometry" />
          </mxCell>
        </UserObject>
        <mxCell id="EFEPzQKhWwJtmKvD1r6x-1" value="Security Controls" style="shape=table;startSize=30;container=1;collapsible=0;childLayout=tableLayout;fixedRows=1;rowLines=0;fontStyle=0;strokeColor=#82b366;fontSize=16;fillColor=#d5e8d4;" vertex="1" parent="1">
          <mxGeometry x="1170" y="705" width="236" height="160.00000000000045" as="geometry" />
        </mxCell>
        <mxCell id="EFEPzQKhWwJtmKvD1r6x-2" value="" style="shape=tableRow;horizontal=0;startSize=0;swimlaneHead=0;swimlaneBody=0;top=0;left=0;bottom=0;right=0;collapsible=0;dropTarget=0;fillColor=none;points=[[0,0.5],[1,0.5]];portConstraint=eastwest;strokeColor=inherit;fontSize=16;" vertex="1" parent="EFEPzQKhWwJtmKvD1r6x-1">
          <mxGeometry y="30" width="236" height="30" as="geometry" />
        </mxCell>
        <mxCell id="EFEPzQKhWwJtmKvD1r6x-3" value="ID" style="shape=partialRectangle;html=1;whiteSpace=wrap;connectable=0;fillColor=#d5e8d4;top=0;left=0;bottom=1;right=0;overflow=hidden;pointerEvents=1;strokeColor=#82b366;fontSize=16;" vertex="1" parent="EFEPzQKhWwJtmKvD1r6x-2">
          <mxGeometry width="52" height="30" as="geometry">
            <mxRectangle width="52" height="30" as="alternateBounds" />
          </mxGeometry>
        </mxCell>
        <mxCell id="EFEPzQKhWwJtmKvD1r6x-4" value="Description" style="shape=partialRectangle;html=1;whiteSpace=wrap;connectable=0;fillColor=#d5e8d4;top=0;left=0;bottom=1;right=0;align=left;spacingLeft=6;overflow=hidden;strokeColor=#82b366;fontSize=16;" vertex="1" parent="EFEPzQKhWwJtmKvD1r6x-2">
          <mxGeometry x="52" width="184" height="30" as="geometry">
            <mxRectangle width="184" height="30" as="alternateBounds" />
          </mxGeometry>
        </mxCell>
        <mxCell id="EFEPzQKhWwJtmKvD1r6x-5" value="" style="shape=tableRow;horizontal=0;startSize=0;swimlaneHead=0;swimlaneBody=0;top=0;left=0;bottom=0;right=0;collapsible=0;dropTarget=0;fillColor=none;points=[[0,0.5],[1,0.5]];portConstraint=eastwest;strokeColor=inherit;fontSize=16;" vertex="1" parent="EFEPzQKhWwJtmKvD1r6x-1">
          <mxGeometry y="60" width="236" height="30" as="geometry" />
        </mxCell>
        <mxCell id="EFEPzQKhWwJtmKvD1r6x-6" value="C01" style="shape=partialRectangle;html=1;whiteSpace=wrap;connectable=0;fillColor=none;top=0;left=0;bottom=0;right=0;overflow=hidden;strokeColor=inherit;fontSize=16;" vertex="1" parent="EFEPzQKhWwJtmKvD1r6x-5">
          <mxGeometry width="52" height="30" as="geometry">
            <mxRectangle width="52" height="30" as="alternateBounds" />
          </mxGeometry>
        </mxCell>
        <mxCell id="EFEPzQKhWwJtmKvD1r6x-7" value="Password hashing" style="shape=partialRectangle;html=1;whiteSpace=wrap;connectable=0;fillColor=none;top=0;left=0;bottom=0;right=0;align=left;spacingLeft=6;overflow=hidden;strokeColor=inherit;fontSize=16;" vertex="1" parent="EFEPzQKhWwJtmKvD1r6x-5">
          <mxGeometry x="52" width="184" height="30" as="geometry">
            <mxRectangle width="184" height="30" as="alternateBounds" />
          </mxGeometry>
        </mxCell>
        <mxCell id="EFEPzQKhWwJtmKvD1r6x-8" value="" style="shape=tableRow;horizontal=0;startSize=0;swimlaneHead=0;swimlaneBody=0;top=0;left=0;bottom=0;right=0;collapsible=0;dropTarget=0;fillColor=none;points=[[0,0.5],[1,0.5]];portConstraint=eastwest;strokeColor=inherit;fontSize=16;" vertex="1" parent="EFEPzQKhWwJtmKvD1r6x-1">
          <mxGeometry y="90" width="236" height="30" as="geometry" />
        </mxCell>
        <mxCell id="EFEPzQKhWwJtmKvD1r6x-9" value="C02" style="shape=partialRectangle;html=1;whiteSpace=wrap;connectable=0;fillColor=none;top=0;left=0;bottom=0;right=0;overflow=hidden;strokeColor=inherit;fontSize=16;" vertex="1" parent="EFEPzQKhWwJtmKvD1r6x-8">
          <mxGeometry width="52" height="30" as="geometry">
            <mxRectangle width="52" height="30" as="alternateBounds" />
          </mxGeometry>
        </mxCell>
        <mxCell id="EFEPzQKhWwJtmKvD1r6x-10" value="Authenticatie" style="shape=partialRectangle;html=1;whiteSpace=wrap;connectable=0;fillColor=none;top=0;left=0;bottom=0;right=0;align=left;spacingLeft=6;overflow=hidden;strokeColor=inherit;fontSize=16;" vertex="1" parent="EFEPzQKhWwJtmKvD1r6x-8">
          <mxGeometry x="52" width="184" height="30" as="geometry">
            <mxRectangle width="184" height="30" as="alternateBounds" />
          </mxGeometry>
        </mxCell>
        <mxCell id="EFEPzQKhWwJtmKvD1r6x-11" value="" style="shape=tableRow;horizontal=0;startSize=0;swimlaneHead=0;swimlaneBody=0;top=0;left=0;bottom=0;right=0;collapsible=0;dropTarget=0;fillColor=none;points=[[0,0.5],[1,0.5]];portConstraint=eastwest;strokeColor=inherit;fontSize=16;" vertex="1" parent="EFEPzQKhWwJtmKvD1r6x-1">
          <mxGeometry y="120" width="236" height="40" as="geometry" />
        </mxCell>
        <mxCell id="EFEPzQKhWwJtmKvD1r6x-12" value="C03" style="shape=partialRectangle;html=1;whiteSpace=wrap;connectable=0;fillColor=none;top=0;left=0;bottom=0;right=0;overflow=hidden;strokeColor=inherit;fontSize=16;" vertex="1" parent="EFEPzQKhWwJtmKvD1r6x-11">
          <mxGeometry width="52" height="40" as="geometry">
            <mxRectangle width="52" height="40" as="alternateBounds" />
          </mxGeometry>
        </mxCell>
        <mxCell id="EFEPzQKhWwJtmKvD1r6x-13" value="TLS" style="shape=partialRectangle;html=1;whiteSpace=wrap;connectable=0;fillColor=none;top=0;left=0;bottom=0;right=0;align=left;spacingLeft=6;overflow=hidden;strokeColor=inherit;fontSize=16;" vertex="1" parent="EFEPzQKhWwJtmKvD1r6x-11">
          <mxGeometry x="52" width="184" height="40" as="geometry">
            <mxRectangle width="184" height="40" as="alternateBounds" />
          </mxGeometry>
        </mxCell>
        <UserObject label="&lt;b&gt;C01&lt;/b&gt;" placeholders="1" name="Variable" id="EFEPzQKhWwJtmKvD1r6x-14">
          <mxCell style="text;html=1;strokeColor=#82b366;fillColor=#d5e8d4;align=center;verticalAlign=middle;whiteSpace=wrap;overflow=hidden;" vertex="1" parent="1">
            <mxGeometry x="895" y="240" width="30" height="20" as="geometry" />
          </mxCell>
        </UserObject>
        <UserObject label="&lt;b&gt;C02&lt;/b&gt;" placeholders="1" name="Variable" id="EFEPzQKhWwJtmKvD1r6x-15">
          <mxCell style="text;html=1;strokeColor=#82b366;fillColor=#d5e8d4;align=center;verticalAlign=middle;whiteSpace=wrap;overflow=hidden;" vertex="1" parent="1">
            <mxGeometry x="191" y="450" width="30" height="20" as="geometry" />
          </mxCell>
        </UserObject>
        <UserObject label="&lt;b&gt;C02&lt;/b&gt;" placeholders="1" name="Variable" id="EFEPzQKhWwJtmKvD1r6x-16">
          <mxCell style="text;html=1;strokeColor=#82b366;fillColor=#d5e8d4;align=center;verticalAlign=middle;whiteSpace=wrap;overflow=hidden;" vertex="1" parent="1">
            <mxGeometry x="180" y="180" width="30" height="20" as="geometry" />
          </mxCell>
        </UserObject>
        <UserObject label="&lt;b&gt;C02&lt;/b&gt;" placeholders="1" name="Variable" id="EFEPzQKhWwJtmKvD1r6x-17">
          <mxCell style="text;html=1;strokeColor=#82b366;fillColor=#d5e8d4;align=center;verticalAlign=middle;whiteSpace=wrap;overflow=hidden;" vertex="1" parent="1">
            <mxGeometry x="895" y="160" width="30" height="20" as="geometry" />
          </mxCell>
        </UserObject>
        <UserObject label="&lt;b&gt;C02&lt;/b&gt;" placeholders="1" name="Variable" id="EFEPzQKhWwJtmKvD1r6x-18">
          <mxCell style="text;html=1;strokeColor=#82b366;fillColor=#d5e8d4;align=center;verticalAlign=middle;whiteSpace=wrap;overflow=hidden;" vertex="1" parent="1">
            <mxGeometry x="810" y="110" width="30" height="20" as="geometry" />
          </mxCell>
        </UserObject>
        <UserObject label="&lt;b&gt;C03&lt;/b&gt;" placeholders="1" name="Variable" id="EFEPzQKhWwJtmKvD1r6x-19">
          <mxCell style="text;html=1;strokeColor=#82b366;fillColor=#d5e8d4;align=center;verticalAlign=middle;whiteSpace=wrap;overflow=hidden;" vertex="1" parent="1">
            <mxGeometry x="550" y="310" width="30" height="20" as="geometry" />
          </mxCell>
        </UserObject>
        <UserObject label="&lt;b&gt;C03&lt;/b&gt;" placeholders="1" name="Variable" id="EFEPzQKhWwJtmKvD1r6x-20">
          <mxCell style="text;html=1;strokeColor=#82b366;fillColor=#d5e8d4;align=center;verticalAlign=middle;whiteSpace=wrap;overflow=hidden;" vertex="1" parent="1">
            <mxGeometry x="580" y="170" width="30" height="20" as="geometry" />
          </mxCell>
        </UserObject>
      </root>
    </mxGraphModel>
  </diagram>
</mxfile>
